<?xml version="1.0" standalone="no"?>
<!DOCTYPE svg PUBLIC "-//W3C//DTD SVG 20010904//EN"
 "http://www.w3.org/TR/2001/REC-SVG-20010904/DTD/svg10.dtd">
<svg version="1.0" xmlns="http://www.w3.org/2000/svg"
 width="212.000000pt" height="212.000000pt" viewBox="0 0 212.000000 212.000000"
 preserveAspectRatio="xMidYMid meet">

<g transform="translate(0.000000,212.000000) scale(0.100000,-0.100000)"
fill="#000000" stroke="none">
<path d="M0 1060 l0 -1060 85 0 c59 0 85 4 85 12 0 9 3 9 12 0 9 -9 239 -12
975 -12 l963 0 0 681 c0 410 -4 678 -9 674 -5 -3 -12 -1 -16 5 -3 5 1 10 9 10
14 0 16 42 16 375 l0 375 -1060 0 -1060 0 0 -1060z m90 1010 c0 -11 -4 -20
-10 -20 -5 0 -10 9 -10 20 0 11 5 20 10 20 6 0 10 -9 10 -20z m1890 -74 c0 -3
-4 -8 -10 -11 -5 -3 -10 -1 -10 4 0 6 5 11 10 11 6 0 10 -2 10 -4z m-547 -126
c-3 -11 -7 -20 -9 -20 -2 0 -4 9 -4 20 0 11 4 20 9 20 5 0 7 -9 4 -20z m-188
-180 c3 -5 1 -10 -4 -10 -6 0 -11 5 -11 10 0 6 2 10 4 10 3 0 8 -4 11 -10z
m-40 -15 c89 -23 217 -90 269 -141 25 -24 46 -49 46 -54 0 -5 6 -7 13 -5 7 2
22 -17 36 -45 13 -28 28 -50 32 -50 4 0 10 -14 14 -31 4 -17 13 -33 22 -36 8
-3 12 -12 8 -21 -6 -16 13 -45 25 -37 4 3 11 -2 14 -11 3 -8 2 -12 -4 -9 -6 3
-10 1 -10 -5 0 -6 7 -13 15 -16 11 -5 13 -10 5 -19 -12 -15 -7 -19 33 -29 21
-5 27 -13 28 -34 1 -17 3 -20 6 -9 6 22 68 24 89 2 20 -19 11 -32 -26 -40 -36
-8 -40 -23 -5 -21 14 0 25 4 25 9 0 4 7 7 15 7 25 0 17 -27 -11 -34 -17 -5
-24 -12 -20 -21 3 -8 0 -15 -7 -15 -8 0 -8 -3 2 -9 8 -5 11 -16 8 -25 -4 -9
-2 -16 3 -16 6 0 10 5 10 10 0 13 37 13 45 0 3 -6 1 -10 -5 -10 -6 0 -8 -5 -5
-10 4 -6 14 -10 23 -9 30 3 42 -1 42 -12 0 -7 -13 -9 -38 -4 l-37 6 5 -48 4
-48 7 45 6 45 1 -47 c1 -27 -1 -48 -5 -48 -13 0 -30 14 -36 30 -3 9 -6 5 -6
-10 -1 -15 5 -32 11 -38 10 -10 10 -17 1 -32 -10 -14 -10 -20 0 -24 9 -3 8 -7
-3 -15 -8 -5 -18 -7 -22 -5 -12 7 -48 -6 -48 -17 0 -5 11 -14 24 -20 34 -16
32 -56 -5 -74 -34 -18 -45 -33 -21 -31 9 0 21 7 25 14 5 7 12 10 17 7 8 -5 8
-12 -5 -52 -9 -29 -35 -31 -28 -3 4 17 0 20 -25 20 -17 0 -34 -4 -37 -10 -3
-5 -15 -10 -27 -10 -12 0 -22 -8 -25 -20 -3 -11 -10 -20 -17 -19 -24 3 -37 -1
-31 -11 3 -6 0 -10 -7 -10 -8 0 -15 12 -16 27 -3 40 -12 41 -12 0 0 -19 7 -42
15 -51 14 -14 14 -17 -5 -36 -16 -16 -58 -26 -92 -21 -4 0 -10 -9 -13 -20 -9
-28 -30 -17 -28 15 1 14 -2 26 -8 26 -5 0 -9 -7 -9 -16 0 -9 -9 -18 -20 -21
-12 -3 -19 -12 -18 -22 2 -12 -6 -16 -29 -18 -24 -1 -33 3 -33 14 0 12 -3 13
-15 3 -9 -7 -30 -10 -57 -6 l-43 5 45 -13 c28 -9 37 -14 23 -15 -13 -1 -23 -7
-23 -13 0 -7 -7 -4 -16 7 -14 19 -15 19 -20 -3 -7 -25 -29 -29 -38 -7 -7 20
-52 19 -60 -1 -3 -9 -4 -20 0 -25 3 -5 -2 -9 -10 -9 -9 0 -16 6 -16 13 0 6
-12 20 -26 31 -23 16 -29 17 -52 5 -20 -11 -26 -11 -29 -1 -3 6 -15 12 -28 12
-13 0 -27 5 -31 11 -4 6 -19 9 -36 5 -26 -5 -29 -3 -23 14 4 11 2 20 -4 20 -6
0 -11 -9 -11 -19 0 -38 -88 -29 -119 12 -9 13 -21 17 -37 13 -12 -3 -26 -2
-29 4 -3 5 1 10 9 10 9 0 16 5 16 10 0 6 -9 10 -20 10 -11 0 -20 7 -20 15 0
18 -5 18 -31 5 -30 -17 -22 3 10 24 l29 20 -25 13 c-14 7 -33 13 -43 13 -9 0
-22 11 -28 25 -8 18 -20 25 -39 25 -20 0 -24 3 -14 9 9 6 10 10 2 16 -7 3 -9
15 -6 26 5 15 1 19 -14 19 -26 0 -26 7 -3 33 16 19 16 20 -4 15 -33 -8 -54 35
-31 60 16 17 16 22 -3 78 -24 70 -26 78 -36 141 -4 26 -12 51 -18 55 -8 5 -7
8 2 8 6 0 12 4 12 9 0 5 -8 7 -19 4 -25 -6 -32 8 -15 32 12 16 14 17 14 2 0
-9 4 -17 9 -17 4 0 11 30 15 68 4 37 10 78 13 91 4 16 2 22 -5 17 -8 -5 -10 3
-5 26 7 34 29 65 35 48 2 -5 14 15 28 45 14 30 31 55 38 55 6 0 12 6 12 14 0
7 28 39 62 71 34 32 57 60 51 62 -13 5 -6 33 8 33 5 0 9 -7 9 -15 0 -19 6 -19
38 3 25 16 53 31 122 61 75 33 257 41 355 16z m-601 -156 c-15 -16 -30 -27
-32 -24 -3 3 5 14 17 24 13 11 20 25 16 30 -4 7 0 8 10 5 14 -6 12 -11 -11
-35z m-44 -49 c0 -5 -4 -10 -10 -10 -5 0 -10 5 -10 10 0 6 5 10 10 10 6 0 10
-4 10 -10z m1477 -66 c-3 -3 -12 -4 -19 -1 -8 3 -5 6 6 6 11 1 17 -2 13 -5z
m-1550 -46 c-3 -8 -6 -5 -6 6 -1 11 2 17 5 13 3 -3 4 -12 1 -19z m1157 -3 c3
-8 1 -15 -4 -15 -6 0 -10 7 -10 15 0 8 2 15 4 15 2 0 6 -7 10 -15z m-1207 -41
c-9 -9 -28 6 -21 18 4 6 10 6 17 -1 6 -6 8 -13 4 -17z m1523 -4 c0 -5 -7 -10
-16 -10 -8 0 -12 5 -9 10 3 6 10 10 16 10 5 0 9 -4 9 -10z m-127 -30 c-3 -11
-10 -20 -15 -20 -6 0 -7 7 -4 16 3 9 6 20 6 25 0 6 4 8 9 5 5 -3 7 -15 4 -26z
m-166 -2 c-3 -8 -6 -5 -6 6 -1 11 2 17 5 13 3 -3 4 -12 1 -19z m293 -42 c0 -9
-7 -12 -21 -9 -16 4 -17 8 -7 14 19 13 28 11 28 -5z m-13 -32 c-3 -3 -12 -4
-19 -1 -8 3 -5 6 6 6 11 1 17 -2 13 -5z m-137 -14 c13 -9 13 -11 1 -19 -9 -6
-22 -6 -32 -1 -9 5 -19 6 -23 3 -3 -3 -6 -1 -6 5 0 9 12 15 40 21 3 0 12 -4
20 -9z m-1420 -71 c0 -5 -9 -9 -20 -9 -11 0 -20 4 -20 8 0 4 9 8 20 9 11 1 20
-2 20 -8z m1550 1 c0 -5 -7 -10 -16 -10 -8 0 -12 5 -9 10 3 6 10 10 16 10 5 0
9 -4 9 -10z m-35 -48 c-3 -3 -11 0 -18 7 -9 10 -8 11 6 5 10 -3 15 -9 12 -12z
m-25 -62 c0 -11 -5 -20 -11 -20 -5 0 -7 5 -4 10 3 6 -1 10 -9 10 -9 0 -16 5
-16 10 0 6 9 10 20 10 13 0 20 -7 20 -20z m107 -6 c-3 -3 -12 -4 -19 -1 -8 3
-5 6 6 6 11 1 17 -2 13 -5z m-57 -34 c0 -5 -5 -10 -11 -10 -5 0 -7 5 -4 10 3
6 8 10 11 10 2 0 4 -4 4 -10z m100 -10 c0 -5 -4 -10 -9 -10 -6 0 -13 5 -16 10
-3 6 1 10 9 10 9 0 16 -4 16 -10z m-1574 -98 c9 -13 8 -21 -4 -31 -12 -12 -13
-11 -7 8 4 12 2 21 -4 21 -6 0 -11 5 -11 10 0 16 14 12 26 -8z m24 -54 c0 -16
-3 -19 -11 -11 -6 6 -8 16 -5 22 11 17 16 13 16 -11z m1480 -18 c0 -5 -4 -10
-10 -10 -5 0 -10 5 -10 10 0 6 5 10 10 10 6 0 10 -4 10 -10z m-1780 -20 c0 -5
-4 -10 -10 -10 -5 0 -10 5 -10 10 0 6 5 10 10 10 6 0 10 -4 10 -10z m1890 0
c0 -5 -4 -10 -10 -10 -5 0 -10 5 -10 10 0 6 5 10 10 10 6 0 10 -4 10 -10z
m-1590 -130 c0 -5 -7 -10 -15 -10 -8 0 -15 5 -15 10 0 6 7 10 15 10 8 0 15 -4
15 -10z m1404 -52 c-3 -5 -12 -8 -20 -8 -14 0 -20 41 -7 54 8 8 33 -35 27 -46z
m176 42 c0 -5 -4 -10 -10 -10 -5 0 -10 5 -10 10 0 6 5 10 10 10 6 0 10 -4 10
-10z m-1580 -28 c0 -13 -12 -22 -22 -16 -10 6 -1 24 13 24 5 0 9 -4 9 -8z
m1415 -48 c-23 -17 -32 -10 -15 11 7 8 17 12 23 8 6 -4 3 -11 -8 -19z m-132
-14 c-4 -16 -2 -19 11 -14 12 5 15 2 10 -10 -8 -22 -21 -20 -35 5 -8 16 -13
18 -19 9 -4 -6 -18 -10 -30 -8 -21 3 -19 5 16 24 44 24 54 23 47 -6z m-1323
-20 c0 -5 -4 -10 -10 -10 -5 0 -10 5 -10 10 0 6 5 10 10 10 6 0 10 -4 10 -10z
m1410 -6 c0 -2 -9 -4 -21 -4 -11 0 -18 4 -14 10 5 8 35 3 35 -6z m-170 -38 c0
-28 -28 -43 -37 -20 -3 8 3 21 13 29 25 19 24 19 24 -9z m60 20 c0 -3 -4 -8
-10 -11 -5 -3 -10 -1 -10 4 0 6 5 11 10 11 6 0 10 -2 10 -4z m100 -21 c0 -8
-9 -15 -20 -15 -20 0 -26 11 -13 23 12 13 33 7 33 -8z m110 -15 c0 -5 -4 -10
-10 -10 -5 0 -10 5 -10 10 0 6 5 10 10 10 6 0 10 -4 10 -10z m-1339 -23 c-1
-12 -15 -9 -19 4 -3 6 1 10 8 8 6 -3 11 -8 11 -12z m1354 -6 c-3 -6 -11 -8
-17 -5 -6 4 -5 9 3 15 16 10 23 4 14 -10z m-235 -1 c0 -5 -5 -10 -11 -10 -5 0
-7 5 -4 10 3 6 8 10 11 10 2 0 4 -4 4 -10z m45 0 c-3 -5 -10 -10 -16 -10 -5 0
-9 5 -9 10 0 6 7 10 16 10 8 0 12 -4 9 -10z m-75 -4 c0 -3 -4 -8 -10 -11 -5
-3 -10 -1 -10 4 0 6 5 11 10 11 6 0 10 -2 10 -4z m-1140 -16 c0 -5 -5 -10 -11
-10 -5 0 -7 5 -4 10 3 6 8 10 11 10 2 0 4 -4 4 -10z m1028 -9 c10 -6 7 -10
-13 -15 -32 -8 -46 1 -25 14 18 12 22 12 38 1z m57 0 c3 -5 1 -12 -5 -16 -5
-3 -10 1 -10 9 0 18 6 21 15 7z m115 -5 c0 -3 -4 -8 -10 -11 -5 -3 -10 -1 -10
4 0 6 5 11 10 11 6 0 10 -2 10 -4z m-1009 -22 c12 -14 11 -16 -5 -13 -11 2
-21 10 -24 17 -5 17 13 15 29 -4z m1309 6 c0 -5 -4 -10 -10 -10 -5 0 -10 5
-10 10 0 6 5 10 10 10 6 0 10 -4 10 -10z m33 -25 c-7 -21 -13 -19 -13 6 0 11
4 18 10 14 5 -3 7 -12 3 -20z m-505 8 c-10 -2 -18 -11 -18 -19 0 -8 -4 -14
-10 -14 -5 0 -10 9 -10 20 0 15 6 20 28 19 16 -1 20 -3 10 -6z m-641 -18 c0
-8 -6 -15 -12 -15 -6 0 -12 7 -12 15 0 8 6 15 12 15 6 0 12 -7 12 -15z m843 4
c0 -11 -27 -12 -34 -1 -2 4 4 9 15 9 10 1 19 -2 19 -8z m80 -9 c0 -11 -5 -20
-11 -20 -6 0 -9 6 -6 14 3 8 1 17 -6 20 -7 2 -4 5 6 5 11 1 17 -6 17 -19z
m-880 -10 c0 -5 -7 -10 -15 -10 -8 0 -15 5 -15 10 0 6 7 10 15 10 8 0 15 -4
15 -10z m670 -5 c0 -8 -4 -15 -10 -15 -5 0 -10 7 -10 15 0 8 5 15 10 15 6 0
10 -7 10 -15z m70 5 c0 -5 -4 -10 -10 -10 -5 0 -10 5 -10 10 0 6 5 10 10 10 6
0 10 -4 10 -10z m-1080 -16 c0 -14 -3 -14 -15 -4 -8 7 -15 14 -15 16 0 2 7 4
15 4 8 0 15 -7 15 -16z m1176 -31 c-8 -8 -12 -3 -21 27 l-7 25 17 -23 c9 -13
14 -26 11 -29z m-1226 27 c0 -13 -11 -13 -30 0 -12 8 -11 10 8 10 12 0 22 -4
22 -10z m470 -7 c0 -11 -4 -11 -22 -2 -32 16 -32 17 -3 17 15 0 25 -6 25 -15z
m-330 -13 c0 -5 -5 -10 -11 -10 -5 0 -7 5 -4 10 3 6 8 10 11 10 2 0 4 -4 4
-10z m215 -19 c7 -12 -12 -24 -25 -16 -11 7 -4 25 10 25 5 0 11 -4 15 -9z
m1035 -31 c0 -5 -4 -10 -9 -10 -6 0 -13 5 -16 10 -3 6 1 10 9 10 9 0 16 -4 16
-10z m-590 -20 c0 -5 -4 -10 -10 -10 -5 0 -10 5 -10 10 0 6 5 10 10 10 6 0 10
-4 10 -10z m212 -2 c-9 -9 -15 -9 -24 0 -9 9 -7 12 12 12 19 0 21 -3 12 -12z
m-792 -28 c0 -5 -2 -10 -4 -10 -3 0 -8 5 -11 10 -3 6 -1 10 4 10 6 0 11 -4 11
-10z m50 0 c0 -5 -7 -10 -15 -10 -8 0 -15 5 -15 10 0 6 7 10 15 10 8 0 15 -4
15 -10z m130 0 c0 -5 -4 -10 -10 -10 -5 0 -10 5 -10 10 0 6 5 10 10 10 6 0 10
-4 10 -10z m387 4 c-3 -3 -12 -4 -19 -1 -8 3 -5 6 6 6 11 1 17 -2 13 -5z m143
-9 c10 -13 9 -15 -8 -15 -22 0 -36 13 -25 24 10 10 20 7 33 -9z m230 -96 c0
-6 -4 -7 -10 -4 -5 3 -10 11 -10 16 0 6 5 7 10 4 6 -3 10 -11 10 -16z m-1680
1 c0 -5 -4 -10 -10 -10 -5 0 -10 5 -10 10 0 6 5 10 10 10 6 0 10 -4 10 -10z
m420 -14 c0 -11 -19 -15 -25 -6 -3 5 1 10 9 10 9 0 16 -2 16 -4z m140 -16 c0
-5 -7 -10 -15 -10 -8 0 -15 5 -15 10 0 6 7 10 15 10 8 0 15 -4 15 -10z"/>
<path d="M1133 1515 c-30 -29 -29 -41 2 -49 49 -12 28 -35 -65 -70 -8 -3 11
-3 43 0 57 5 65 1 47 -26 -6 -10 -10 -11 -10 -2 0 6 -7 12 -15 12 -12 0 -15
-9 -13 -35 1 -19 -2 -38 -7 -42 -4 -4 -6 0 -2 9 7 21 -14 29 -54 21 -22 -4
-27 -8 -17 -14 9 -6 6 -9 -10 -9 -13 0 -21 -4 -18 -9 8 -12 30 -9 48 6 9 8 18
9 28 2 11 -8 12 -12 3 -16 -25 -10 -13 -22 13 -13 35 14 36 13 29 -10 -4 -12
-2 -20 5 -20 7 0 14 9 17 19 5 21 39 35 49 20 3 -5 -4 -9 -15 -9 -17 0 -21 -6
-20 -32 1 -25 3 -27 6 -10 3 15 10 22 18 18 8 -3 27 11 45 34 18 22 37 40 43
40 8 0 7 -4 -1 -12 -7 -7 -12 -20 -12 -31 0 -10 -4 -15 -10 -12 -5 3 -10 -3
-10 -15 0 -12 5 -18 10 -15 6 3 10 1 10 -5 0 -6 4 -9 10 -5 5 3 7 -17 5 -51
-4 -49 -2 -57 15 -61 11 -3 20 -10 20 -15 0 -6 -6 -8 -14 -5 -8 3 -20 0 -26
-8 -9 -11 -6 -13 15 -11 24 3 25 2 10 -14 -15 -17 -15 -19 5 -25 13 -4 31 0
45 9 24 16 25 15 25 -4 0 -11 -6 -23 -13 -26 -7 -2 -13 -14 -14 -25 -1 -12 -9
-29 -18 -39 -9 -10 -12 -20 -8 -23 13 -8 30 5 34 27 6 28 24 30 37 4 10 -22
11 -22 11 7 1 34 21 74 21 43 0 -10 5 -18 10 -18 6 0 10 16 10 35 0 47 -1 50
-11 48 -4 -2 -6 4 -2 12 8 22 31 0 35 -33 2 -15 9 -27 16 -27 7 0 17 -7 22
-15 7 -11 10 -7 10 17 0 25 -4 31 -15 27 -8 -4 -15 -2 -15 4 0 5 8 12 18 15 9
2 25 8 35 12 10 4 17 3 17 -4 0 -6 -7 -11 -15 -11 -8 0 -15 -8 -15 -17 0 -13
3 -14 12 -5 7 7 20 12 30 12 22 0 23 13 2 34 -13 13 -13 16 -1 16 13 0 15 12
8 94 -1 12 -6 16 -16 12 -8 -3 -15 -1 -15 4 0 6 8 10 18 11 10 0 12 3 5 6 -7
2 -13 18 -13 35 0 22 -4 29 -15 24 -8 -3 -21 2 -30 10 -11 12 -15 12 -16 2 0
-7 -7 2 -15 21 -12 27 -13 36 -3 42 8 4 18 1 24 -8 10 -13 13 -14 20 -3 5 9 4
15 -3 18 -7 2 -10 8 -6 13 6 11 -19 39 -35 39 -6 0 -11 5 -11 10 0 6 -7 10
-15 10 -24 0 -17 -14 16 -34 36 -21 33 -31 -6 -16 -25 9 -26 9 -15 -5 7 -8 8
-15 3 -15 -6 0 -15 10 -21 23 -6 12 -11 16 -11 10 -1 -18 -50 -16 -57 2 -4 8
-15 15 -25 15 -10 0 -19 5 -19 10 0 10 5 12 33 14 24 2 41 27 30 45 -12 20
-51 27 -66 12 -6 -6 -22 -11 -35 -11 -15 0 -26 -7 -29 -20 -3 -11 -10 -20 -15
-20 -5 0 -7 4 -4 9 3 5 -1 11 -8 14 -8 3 -17 1 -20 -6 -3 -9 -5 -9 -5 0 -1 6
4 15 9 18 17 10 -9 35 -34 34 -11 -1 -31 -11 -43 -24z m20 -32 c-7 -2 -19 -2
-25 0 -7 3 -2 5 12 5 14 0 19 -2 13 -5z m124 -29 c-3 -3 -12 -4 -19 -1 -8 3
-5 6 6 6 11 1 17 -2 13 -5z m-47 -64 c0 -5 -4 -10 -10 -10 -5 0 -10 5 -10 10
0 6 5 10 10 10 6 0 10 -4 10 -10z m185 0 c-3 -5 -10 -10 -16 -10 -5 0 -9 5 -9
10 0 6 7 10 16 10 8 0 12 -4 9 -10z m11 -47 c-10 -10 -19 5 -10 18 6 11 8 11
12 0 2 -7 1 -15 -2 -18z m-216 -3 c0 -11 -7 -20 -15 -20 -13 0 -13 3 -3 20 7
11 14 20 15 20 2 0 3 -9 3 -20z m250 -10 c-11 -21 -22 -25 -33 -13 -5 5 20 25
41 32 1 1 -2 -8 -8 -19z m-113 -27 c1 -22 -1 -24 -8 -10 -6 9 -7 22 -4 27 9
14 10 13 12 -17z m-43 -27 c-22 -17 -32 -3 -13 20 8 10 15 12 23 4 7 -7 4 -14
-10 -24z m69 -73 c4 -19 2 -33 -3 -33 -6 0 -10 17 -10 37 0 43 5 41 13 -4z
m-25 -40 c9 -7 12 -16 8 -20 -4 -4 -11 -1 -17 7 -8 13 -10 13 -20 0 -9 -13
-10 -12 -5 3 3 10 6 26 7 35 0 14 2 14 6 2 3 -8 12 -21 21 -27z m212 17 c0
-13 -5 -18 -15 -14 -10 4 -15 0 -15 -10 0 -9 -7 -28 -16 -42 -13 -19 -20 -22
-30 -13 -20 16 -17 29 5 29 13 0 20 10 25 31 3 17 10 28 15 24 5 -3 12 -1 16
5 10 15 15 12 15 -10z m-105 -26 c-9 -9 -19 -13 -23 -10 -3 4 0 11 8 16 24 15
33 11 15 -6z m-51 -70 c3 -8 2 -12 -4 -9 -6 3 -10 10 -10 16 0 14 7 11 14 -7z
m-4 -74 c0 -5 -7 -10 -15 -10 -8 0 -15 5 -15 10 0 6 7 10 15 10 8 0 15 -4 15
-10z"/>
<path d="M1070 1490 c0 -5 5 -10 10 -10 6 0 10 5 10 10 0 6 -4 10 -10 10 -5 0
-10 -4 -10 -10z"/>
<path d="M1416 1465 c-3 -8 -3 -15 0 -15 3 0 12 7 20 15 13 13 13 15 1 15 -8
0 -17 -7 -21 -15z"/>
<path d="M1020 1361 c-23 -6 -23 -8 -5 -12 24 -7 45 -1 45 12 0 10 -4 10 -40
0z"/>
<path d="M1545 1359 c-4 -6 -5 -12 -2 -15 2 -3 7 2 10 11 7 17 1 20 -8 4z"/>
<path d="M1020 1260 c0 -5 5 -10 10 -10 6 0 10 5 10 10 0 6 -4 10 -10 10 -5 0
-10 -4 -10 -10z"/>
<path d="M1232 1240 c0 -14 2 -19 5 -12 2 6 2 18 0 25 -3 6 -5 1 -5 -13z"/>
<path d="M1036 1243 c-14 -4 -16 -7 -6 -13 11 -7 11 -11 1 -24 -21 -25 3 -19
27 7 12 13 19 27 15 30 -7 7 -7 7 -37 0z"/>
<path d="M1090 1240 c0 -5 4 -10 9 -10 6 0 13 5 16 10 3 6 -1 10 -9 10 -9 0
-16 -4 -16 -10z"/>
<path d="M1244 1195 c-4 -14 -4 -29 0 -32 3 -4 6 1 6 10 0 10 7 17 15 17 9 0
12 6 9 15 -9 23 -23 18 -30 -10z"/>
<path d="M1071 1184 c0 -11 3 -14 6 -6 3 7 2 16 -1 19 -3 4 -6 -2 -5 -13z"/>
<path d="M1775 1110 c3 -5 15 -10 26 -10 10 0 19 5 19 10 0 6 -12 10 -26 10
-14 0 -23 -4 -19 -10z"/>
<path d="M1755 1029 c-4 -11 -4 -23 -1 -26 3 -4 6 1 6 11 0 9 10 21 23 26 l22
9 -22 0 c-13 1 -24 -7 -28 -20z"/>
<path d="M1265 1010 c-3 -5 -1 -10 4 -10 6 0 11 5 11 10 0 6 -2 10 -4 10 -3 0
-8 -4 -11 -10z"/>
<path d="M493 755 c-15 -17 -16 -25 -3 -25 5 0 14 9 20 20 12 23 1 26 -17 5z"/>
<path d="M1780 670 c0 -5 7 -10 15 -10 8 0 15 5 15 10 0 6 -7 10 -15 10 -8 0
-15 -4 -15 -10z"/>
<path d="M1753 645 c-3 -9 -3 -18 -1 -21 3 -3 8 4 11 16 6 23 -1 27 -10 5z"/>
<path d="M1681 624 c0 -11 3 -14 6 -6 3 7 2 16 -1 19 -3 4 -6 -2 -5 -13z"/>
<path d="M1708 588 c9 -9 15 -9 24 0 9 9 7 12 -12 12 -19 0 -21 -3 -12 -12z"/>
<path d="M1660 580 c0 -5 5 -10 10 -10 6 0 10 5 10 10 0 6 -4 10 -10 10 -5 0
-10 -4 -10 -10z"/>
<path d="M1636 561 c-4 -5 -2 -12 3 -15 5 -4 12 -2 15 3 4 5 2 12 -3 15 -5 4
-12 2 -15 -3z"/>
<path d="M1550 480 c0 -5 5 -10 10 -10 6 0 10 5 10 10 0 6 -4 10 -10 10 -5 0
-10 -4 -10 -10z"/>
<path d="M770 430 c0 -5 10 -15 23 -21 22 -12 22 -12 3 10 -21 23 -26 26 -26
11z"/>
<path d="M840 400 c0 -5 7 -10 15 -10 8 0 15 5 15 10 0 6 -7 10 -15 10 -8 0
-15 -4 -15 -10z"/>
<path d="M1365 390 c3 -5 10 -10 16 -10 5 0 9 5 9 10 0 6 -7 10 -16 10 -8 0
-12 -4 -9 -10z"/>
<path d="M1074 372 c10 -16 63 -25 83 -13 17 10 16 10 -3 11 -12 0 -36 3 -54
7 -23 4 -31 3 -26 -5z"/>
</g>
</svg>
